PathFileType	4	(X/Y/Z)	Patient5_TMGait_0pt45_1_right_13.trc.trc
DataRate	CameraRate	NumFrames	NumMarkers	Units	OrigDataRate	OrigDataStartFrame	OrigNumFrames
63.348416289593	63.348416289593	4	32	mm	63.348416289593	89	       141
Frame#	Time	R.ASIS			L.ASIS			Chest			R.Shoulder			Neck			L.Shoulder			L.Elbow			L.Wrist			R.Elbow			R.Wrist			L.Thigh.Superior			L.Thigh.Lateral			L.Thigh.Inferior			L.Patella			L.Shank.Superior			L.Shank.Lateral			L.Shank.Inferior			L.Heel			L.Midfoot.Lateral			L.Midfoot.Superior			L.Toe			R.Thigh.Superior			R.Thigh.Lateral			R.Thigh.Inferior			R.Patella			R.Shank.Superior			R.Shank.Lateral			R.Shank.Inferior			R.Heel			R.Midfoot.Lateral			R.Midfoot.Superior			R.Toe			
		X1	Y1	Z1	X2	Y2	Z2	X3	Y3	Z3	X4	Y4	Z4	X5	Y5	Z5	X6	Y6	Z6	X7	Y7	Z7	X8	Y8	Z8	X9	Y9	Z9	X10	Y10	Z10	X11	Y11	Z11	X12	Y12	Z12	X13	Y13	Z13	X14	Y14	Z14	X15	Y15	Z15	X16	Y16	Z16	X17	Y17	Z17	X18	Y18	Z18	X19	Y19	Z19	X20	Y20	Z20	X21	Y21	Z21	X22	Y22	Z22	X23	Y23	Z23	X24	Y24	Z24	X25	Y25	Z25	X26	Y26	Z26	X27	Y27	Z27	X28	Y28	Z28	X29	Y29	Z29	X30	Y30	Z30	X31	Y31	Z31	X32	Y32	Z32	

89	22.769142857143	1031.570522402650	1004.759850506828	536.820521401218	1071.288823879387	964.098272085300	300.268687562447	1157.328127087394	1436.587905909335	450.845549902474	1022.659979088888	1506.806106875648	586.622745713348	1052.552202055973	1570.038481767236	405.134293595715	1161.721315481704	1512.597118385906	250.054684311599	1127.946726645516	1200.035799082936	95.393135522161	1236.569295071563	936.226806607113	147.531059996913	892.045292930586	1192.190120529960	698.910571955172	1114.727773499603	1006.065590079569	682.934862729230	1089.141695648198	750.424003430653	305.141347174107	1024.325751370990	677.299415102623	259.054842096415	1089.972721466288	624.421586685453	334.650634806568	1093.539153909816	509.912543441848	347.940080439266	1047.147563896152	406.534182810744	367.005933188906	992.501063298742	333.414044790601	282.790509184983	1014.745187427875	283.232814667564	376.223476785434	883.743641857277	52.036518208463	373.920285949756	975.966807424850	27.250354682192	320.010875436747	1070.629425496069	88.737205673817	370.227935098384	1177.345582160731	43.866480192208	381.536657877709	1057.812563812406	786.683270817124	592.100969787944	973.057239188315	715.399940023730	651.753561648769	1064.734167649611	653.704263554817	600.482695412242	1057.325109218365	550.762912048366	645.380301208211	972.778769416037	456.905840034337	609.485159545787	869.152526453393	438.012717840159	684.939330204284	889.467913058034	342.448256224213	612.487763883904	680.954619731525	213.289219101264	576.898110468206	717.359102888231	142.747315321872	653.599950618862	843.133053080605	137.725786968702	651.988367318219	902.856710048869	44.419982766840	657.932863424749	
90	22.784928571429	1031.848021161711	1006.022938652334	534.621219258253	1069.908001238409	963.976048222457	298.443296469081	1156.799299211683	1437.152367412871	449.146222965057	1022.130929988722	1507.343946607175	584.887088871224	1052.145677652570	1570.616899932035	403.444418979462	1161.600416994047	1513.248631631760	248.624722200720	1129.767341090023	1200.433226603441	94.065391011557	1240.056995449927	937.406998759760	146.597661614879	890.138638864567	1193.178880421177	696.896295972851	1112.042361913115	1006.112021195817	680.879965330107	1086.629032513635	750.184334042724	303.579209439419	1020.434236019923	677.733345879366	258.135256134431	1086.513213847973	623.962992093032	332.750585643907	1089.071315259094	509.338476555611	345.829582309139	1042.115586547366	406.366376720920	365.514514028052	986.031971221467	333.660337290473	281.747661615756	1008.959751612617	283.245650153961	375.099461693727	876.619889012140	52.181294830674	373.700939581137	968.799032954679	27.207652127905	319.812835584954	1063.566482809453	88.718295524212	369.780913834621	1170.108094771242	43.905586234434	381.401423914004	1056.926806924285	787.594094350471	590.632501920191	972.177387204922	717.085874155220	650.696105179647	1062.984569265858	655.220282042784	598.982235338813	1056.828325440875	553.522900390545	645.104255068526	976.551511715847	457.506170558032	610.814820395435	873.215277898253	435.130672167279	685.339326136694	899.245179776632	339.287500834087	615.532718313769	698.398080108987	196.612949286328	579.967110272342	737.992080571584	131.601714602484	660.264242688441	863.783048813977	134.497375092956	660.808925030900	929.228817671941	45.412420095520	671.716109434879	
91	22.800714285714	1032.119363928465	1007.220853937077	532.772459405084	1068.551622906982	963.736549299973	296.972204225749	1156.086345143683	1437.556155450000	447.456671362887	1021.553858769830	1507.744711049074	583.252273565352	1051.489062792783	1571.029216878392	401.800789959725	1161.140513196507	1513.690243945678	247.200197084942	1131.381161988665	1200.592052413218	92.858221318013	1243.077817330391	938.288760594683	145.961489831608	888.452110897473	1194.028705430464	695.262771519936	1109.476398820833	1005.950350422150	678.746282840657	1084.214272781760	749.853262961546	302.321674474353	1016.661522803827	677.974720345608	257.476075314832	1083.126013219174	623.405046523732	331.200209783977	1084.677655608158	508.686739798687	344.141627804417	1037.142635033057	406.091280414426	364.361969916489	979.768326725408	333.804975620098	281.026554778557	1003.194241704235	283.174975278457	374.245055853380	869.499301872623	52.268450350188	373.566987301605	961.638499767140	27.177612504863	319.669112618123	1056.476632216134	88.680957133429	369.442407038630	1162.892709925404	43.938893838135	381.271565491864	1055.471240235409	788.182812801223	589.425050601724	970.867263096500	718.472801271293	649.848790274433	1060.965362856402	656.569409936575	597.773723037988	1056.319200704099	556.170005565368	645.086060429721	980.906003905287	458.060970155808	612.178094413376	878.077959518772	431.708798526297	685.736094096220	910.281068791411	336.107072773648	618.520355793481	718.413076590226	180.070754246945	582.900873201356	760.848520086345	120.408856253519	666.369021800907	886.191247508438	131.340919130682	668.968967217154	957.115017368858	46.843800668398	684.256047572884	
92	22.816500000000	1032.390615337818	1008.368668352803	531.347186589837	1067.237280406976	963.413257120622	295.920530770939	1155.171266296524	1437.801532980670	445.811751998654	1020.880109387103	1508.013668623555	581.726534120996	1050.576020342489	1571.276799768958	400.221307829958	1160.325361832756	1513.911134554339	245.785919571911	1132.741135282502	1200.499187592062	91.782760505122	1245.650365343681	938.876701674968	145.600656597330	886.984257637867	1194.709507518772	693.995299215777	1107.071111449297	1005.601832972296	676.562576556168	1081.852087125383	749.407718765404	301.436986531796	1013.049543539192	678.011772513614	257.106425160005	1079.761450246558	622.734249711715	330.055497090262	1080.312214994813	507.951667111494	342.906739302637	1032.182185912708	405.711652679322	363.551797466326	973.687071689780	333.841379404612	280.614340387223	997.430788281803	283.025563637987	373.674858808968	862.379598920825	52.291427754226	373.526435755478	954.483310847237	27.161596106678	319.582669923432	1049.359915745330	88.624637007838	369.215511889634	1155.701211524815	43.962075061238	381.152075008103	1053.633694737723	788.574702782370	588.508406568038	969.394561198361	719.580912662025	649.293963773020	1059.022845772083	657.841381527020	596.936854011650	1056.148994567244	558.737662336238	645.379795744673	985.989579493132	458.713406418649	613.546040987314	883.930531322298	428.043528868714	686.159907863457	922.467771886231	333.259037112802	621.331698920646	740.520515731626	164.582890279096	585.610255184978	785.478791252444	109.811065636789	671.620363713650	909.881545569729	128.641793296821	676.026379819429	985.873737514514	48.970136925805	694.824118368960	
